Deck the Halls
												

											

Tuesday, Dec. 20 at 9 p.m. (ET/PT)
												

											

Based on the first book in Mary Higgins Clark and daughter Carol Higgins Clark's series of 

holiday mystery novels, this warm-hearted story brings together two of the authors' most 

popular characters: Cleaning-woman-turned-private-eye Alvirah Meegan, played by Kathy 

Najimy (Sister Act, Franklin & Bash) and Detective Regan Reilly, played by Scottie Thompson 

(Star Trek, Skyline). The women investigate the kidnapping of Regan's father and a young 

female driver just before the holidays. The race is on to rescue the pair and get them home 

in time for Christmas. Two-time Emmy® winner Jane Alexander (Testament, Warm Springs) plays 

Regan's mother, famed mystery writer Nora Regan Reilly. Ron Underwood (Tremors, City 

Slickers) will direct from a script by Howard Burkons (John Q, TNT's The Ron Clark Story), 

who also serves as executive producer with Brenda Friend (Joan of Arc, TNT's The Ron Clark 

Story) and Frank von Zerneck (We Were the Mulvaneys, Miracle on Ice).				

												

												

											

Enjoy and please share.										

												

												

												

TTLTTLTTLTTLTTLTTLTTLTTLTTLTTLTTLTTLTTLTTLTTLTTLTTLTTLTTLTTLTTL					

												

												

											

Deck_The_Halls_480p.HDTV.x264_TTL.mkv
Format                           : Matroska
File size                        : 1.16 GiB
Duration                         : 1h 27mn
Overall bit rate                 : 1 906 Kbps
Writing application              : HandBrake 0.9.5
Writing library                  : libmkv 0.6.4.1

Video
ID                               : 1
Format                           : AVC
Format/Info                      : Advanced Video Codec
Format profile                   : Main@L3.0
Format settings, CABAC           : Yes
Format settings, ReFrames        : 4 frames
Muxing mode                      : Container profile=Unknown@3.0
Codec ID                         : V_MPEG4/ISO/AVC
Duration                         : 1h 27mn
Bit rate                         : 1 644 Kbps
Nominal bit rate                 : 1 676 Kbps
Width                            : 624 pixels
Height                           : 352 pixels
Display aspect ratio             : 16:9
Frame rate mode                  : Variable
Frame rate                       : 29.970 fps
Resolution                       : 8 bits
Colorimetry                      : 4:2:0
Scan type                        : Progressive
Bits/(Pixel*Frame)               : 0.250
Stream size                      : 1.00 GiB (86%)
Writing library                  : x264 core 112
Encoding settings                : cabac=1 / ref=2 / deblock=1:0:0 / analyse=0x1:0x111 / 

me=hex / subme=6 / psy=1 / psy_rd=1.00:0.00 / mixed_ref=0 / me_range=16 / chroma_me=1 / 

trellis=0 / 8x8dct=0 / cqm=0 / deadzone=21,11 / fast_pskip=1 / chroma_qp_offset=-2 / 

threads=3 / sliced_threads=0 / nr=0 / decimate=1 / interlaced=0 / constrained_intra=0 / 

bframes=2 / b_pyramid=2 / b_adapt=1 / b_bias=0 / direct=1 / weightb=0 / open_gop=0 / 

weightp=2 / keyint=300 / keyint_min=29 / scenecut=40 / intra_refresh=0 / rc_lookahead=40 / 

rc=2pass / mbtree=1 / bitrate=1676 / ratetol=1.0 / qcomp=0.60 / qpmin=3 / qpmax=51 / 

qpstep=4 / cplxblur=20.0 / qblur=0.5 / ip_ratio=1.40 / aq=1:1.00
Color primaries                  : BT.601-6 525, BT.1358 525, BT.1700 NTSC, SMPTE 170M
Transfer characteristics         : BT.709-5, BT.1361
Matrix coefficients              : BT.601-6 525, BT.1358 525, BT.1700 NTSC, SMPTE 170M

Audio
ID                               : 2
Format                           : AC-3
Format/Info                      : Audio Coding 3
Codec ID                         : A_AC3
Duration                         : 1h 27mn
Bit rate mode                    : Constant
Bit rate                         : 224 Kbps
Channel(s)                       : 2 channels
Channel positions                : L R
Sampling rate                    : 48.0 KHz
Stream size                      : 140 MiB (12%)



